<svg width="185" height="75" viewBox="0 0 185 75" fill="none" xmlns="http://www.w3.org/2000/svg">
<path d="M4.44 17.28H13.896V2.904L8.496 14.472L3.096 2.88V18L2.376 17.976V1.176H3.096L8.496 12.768L13.896 1.2L14.616 1.176V18L4.44 17.976V17.28ZM28.3442 1.2H37.5362V10.776C37.5362 13.336 37.0962 15.224 36.2162 16.44C35.3362 17.64 33.9122 18.24 31.9442 18.24C29.9762 18.24 28.5522 17.64 27.6722 16.44C26.7922 15.224 26.3522 13.336 26.3522 10.776V1.2H27.0722V10.776C27.0722 12.104 27.1842 13.224 27.4082 14.136C27.6322 15.032 27.9682 15.72 28.4162 16.2C28.8642 16.68 29.3682 17.024 29.9282 17.232C30.4882 17.424 31.1602 17.52 31.9442 17.52C32.7282 17.52 33.4002 17.424 33.9602 17.232C34.5202 17.024 35.0242 16.68 35.4722 16.2C35.9202 15.72 36.2562 15.032 36.4802 14.136C36.7042 13.224 36.8162 12.104 36.8162 10.776V1.92H28.3442V1.2ZM48.7798 5.352C48.7798 3.8 49.1718 2.68 49.9558 1.992C50.7398 1.304 52.0118 0.959999 53.7718 0.959999C55.0038 0.959999 55.9958 1.28 56.7478 1.92C57.4998 2.56 58.0438 3.536 58.3798 4.848L56.1478 6.528H54.9718L57.5638 4.584C57.2278 3.512 56.7398 2.76 56.0998 2.328C55.4758 1.896 54.6998 1.68 53.7718 1.68C53.1318 1.68 52.5878 1.72 52.1398 1.8C51.7078 1.88 51.2678 2.04 50.8198 2.28C50.3878 2.504 50.0598 2.872 49.8358 3.384C49.6118 3.896 49.4998 4.552 49.4998 5.352C49.4998 6.056 49.8198 6.68 50.4598 7.224C51.1158 7.768 51.9078 8.232 52.8358 8.616C53.7638 9 54.6918 9.392 55.6198 9.792C56.5638 10.192 57.3558 10.704 57.9958 11.328C58.6518 11.952 58.9798 12.672 58.9798 13.488C58.9798 15.088 58.5798 16.28 57.7798 17.064C56.9958 17.848 55.6438 18.24 53.7238 18.24C52.1558 18.24 50.9238 17.928 50.0278 17.304C49.1318 16.664 48.5158 15.68 48.1798 14.352L48.8518 14.064C49.1718 15.36 49.7158 16.264 50.4838 16.776C51.2678 17.272 52.3478 17.52 53.7238 17.52C55.2598 17.52 56.3958 17.224 57.1318 16.632C57.8838 16.04 58.2598 14.992 58.2598 13.488C58.2598 12.784 57.9318 12.16 57.2758 11.616C56.6358 11.072 55.8438 10.608 54.8998 10.224C53.9718 9.84 53.0438 9.448 52.1158 9.048C51.1878 8.648 50.3958 8.136 49.7398 7.512C49.0998 6.888 48.7798 6.168 48.7798 5.352ZM79.9209 1.2V1.92H74.2809V18H73.5609V1.92H67.9209V1.2H79.9209ZM90.2955 17.28H99.1275L94.0395 3.288L88.6875 18H87.9195L94.0395 1.176L100.16 18H90.2955V17.28ZM118.781 9.216H111.653L118.997 1.92H110.885V18H110.165V1.2H120.749L113.405 8.496H118.781V9.216ZM130.992 17.28H139.824L134.736 3.288L129.384 18H128.616L134.736 1.176L140.856 18H130.992V17.28ZM2.808 45.28H11.64L6.552 31.288L1.2 46H0.432L6.552 29.176L12.672 46H2.808V45.28ZM24.9816 46H22.6776V29.2H24.9816C27.2856 29.2 29.2376 30.048 30.8376 31.744C32.4376 33.44 33.2376 35.392 33.2376 37.6C33.2376 39.808 32.4376 41.76 30.8376 43.456C29.2376 45.152 27.2856 46 24.9816 46ZM24.9816 45.28C27.0776 45.28 28.8536 44.512 30.3096 42.976C31.7816 41.424 32.5176 39.632 32.5176 37.6C32.5176 35.568 31.7816 33.784 30.3096 32.248C28.8536 30.696 27.0776 29.92 24.9816 29.92H23.3976V45.28H24.9816ZM44.5361 45.28H53.3681L48.2801 31.288L42.9281 46H42.1601L48.2801 29.176L54.4001 46H44.5361V45.28ZM66.4697 45.28H75.9257V30.904L70.5257 42.472L65.1257 30.88V46L64.4057 45.976V29.176H65.1257L70.5257 40.768L75.9257 29.2L76.6457 29.176V46L66.4697 45.976V45.28ZM2.808 73.28H11.64L6.552 59.288L1.2 74H0.432L6.552 57.176L12.672 74H2.808V73.28ZM32.7096 73.28V74H22.6776V57.2H23.3976V73.28H32.7096ZM42.147 61.352C42.147 59.8 42.539 58.68 43.323 57.992C44.107 57.304 45.379 56.96 47.139 56.96C48.371 56.96 49.363 57.28 50.115 57.92C50.867 58.56 51.411 59.536 51.747 60.848L49.515 62.528H48.339L50.931 60.584C50.595 59.512 50.107 58.76 49.467 58.328C48.843 57.896 48.067 57.68 47.139 57.68C46.499 57.68 45.955 57.72 45.507 57.8C45.075 57.88 44.635 58.04 44.187 58.28C43.755 58.504 43.427 58.872 43.203 59.384C42.979 59.896 42.867 60.552 42.867 61.352C42.867 62.056 43.187 62.68 43.827 63.224C44.483 63.768 45.275 64.232 46.203 64.616C47.131 65 48.059 65.392 48.987 65.792C49.931 66.192 50.723 66.704 51.363 67.328C52.019 67.952 52.347 68.672 52.347 69.488C52.347 71.088 51.947 72.28 51.147 73.064C50.363 73.848 49.011 74.24 47.091 74.24C45.523 74.24 44.291 73.928 43.395 73.304C42.499 72.664 41.883 71.68 41.547 70.352L42.219 70.064C42.539 71.36 43.083 72.264 43.851 72.776C44.635 73.272 45.715 73.52 47.091 73.52C48.627 73.52 49.763 73.224 50.499 72.632C51.251 72.04 51.627 70.992 51.627 69.488C51.627 68.784 51.299 68.16 50.643 67.616C50.003 67.072 49.211 66.608 48.267 66.224C47.339 65.84 46.411 65.448 45.483 65.048C44.555 64.648 43.763 64.136 43.107 63.512C42.467 62.888 42.147 62.168 42.147 61.352ZM73.3841 74H72.6641V65.6H64.0241V74H63.3041V57.2H64.0241V64.88H72.6641V57.2H73.3841V74ZM85.7721 73.28H94.6041L89.5161 59.288L84.1641 74H83.3961L89.5161 57.176L95.6361 74H85.7721V73.28ZM107.706 73.28H117.162V58.904L111.762 70.472L106.362 58.88V74L105.642 73.976V57.176H106.362L111.762 68.768L117.162 57.2L117.882 57.176V74L107.706 73.976V73.28ZM131.898 73.28H141.354V58.904L135.954 70.472L130.554 58.88V74L129.834 73.976V57.176H130.554L135.954 68.768L141.354 57.2L142.074 57.176V74L131.898 73.976V73.28ZM154.458 73.28H163.29L158.202 59.288L152.85 74H152.082L158.202 57.176L164.322 74H154.458V73.28ZM174.76 73.28H183.592L178.504 59.288L173.152 74H172.384L178.504 57.176L184.624 74H174.76V73.28Z" fill="#07070D"/>
</svg>
